<?xml version="1.0" encoding="UTF-8"?>
<svg version="1.1" viewBox="0 0 4096 4096" xmlns="http://www.w3.org/2000/svg">
  <title>Chess White Anteater</title>

  <path d="m3484.6 3846.4h-2873.2q-87.891-219.73-87.891-455.35 0-316.41 160.4-586.67 160.4-272.46 432.86-437.26 272.46-166.99 610.84-204.35-98.877-142.82-136.23-314.21-263.67-35.156-529.54-127.44-265.87-94.482-415.28-210.94-149.41-116.46-149.41-250.49 0-129.64 125.24-208.74 125.24-81.299 347.17-81.299 270.26 0 540.52 83.496 270.26 81.299 483.4 237.3 43.945-270.26 177.98-496.58 136.23-228.52 344.97-373.54 140.62 76.904 252.69 195.56 112.06 118.65 184.57 265.87 241.7 92.285 428.47 268.07 186.77 175.78 292.24 415.28 107.67 237.3 107.67 518.55 0 314.21-131.84 591.06-129.64 274.66-366.94 461.43 125.24 85.693 228.52 206.54 103.27 120.85 166.99 268.07 65.918 145.02 65.918 290.04 0 204.35-79.102 395.51z"/>
  <path d="m3293.5 3697q43.945-142.82 43.945-294.43 0-204.35-105.47-379.93-105.47-177.98-292.24-283.45-197.75-65.918-197.75-188.96 0-76.904 90.088-145.02 175.78-131.84 274.66-336.18 101.07-206.54 101.07-437.26 0-219.73-83.496-404.3-81.299-184.57-228.52-318.6-147.22-136.23-342.77-202.15-52.734-13.184-81.299-63.721-43.945-94.482-107.67-177.98-63.721-83.496-138.43-140.62-125.24 127.44-193.36 314.21-65.918 184.57-65.918 393.31 0 65.918-50.537 101.07-50.537 35.156-109.86 6.5918-210.94-105.47-443.85-164.79-232.91-61.523-443.85-61.523-116.46 0-184.57 24.17-68.115 24.17-68.115 61.523 0 41.748 85.693 103.27 85.693 59.326 230.71 116.46 145.02 54.932 325.2 94.482 182.37 37.354 355.96 48.34 131.84 8.7891 142.82 131.84 17.578 182.37 118.65 318.6 101.07 136.23 250.49 202.15 118.65 52.734 118.65 153.81 0 107.67-123.05 145.02-364.75 94.482-595.46 344.97-230.71 248.29-230.71 584.47 0 151.61 46.143 304.32z" fill="#fff"/>
  <path d="m1168.1 3483.8q377.93-118.65 879.39-118.65 509.76 0 879.39 118.65 57.129 17.578 79.102 70.312 24.17 52.734 2.1973 105.47-24.17 54.932-76.904 74.707-52.734 19.775-109.86 2.1972-336.18-103.27-773.92-103.27-443.85 0-773.92 103.27-57.129 17.578-109.86-2.1972-52.734-19.775-76.904-74.707-21.973-52.734 2.1973-105.47 21.973-52.734 79.102-70.312z"/>
  <path d="m1608.6 3167.4q195.56-52.734 439.45-52.734 250.49 0 439.45 52.734 59.326 15.381 87.891 65.918 30.762 48.34 15.381 105.47-15.381 59.326-65.918 87.891-48.34 28.564-105.47 13.184-164.79-46.143-371.34-46.143-204.35 0-371.34 46.143-57.129 15.381-105.47-13.184-48.34-28.564-63.721-87.891-15.381-57.129 13.184-105.47 30.762-50.537 87.891-65.918z"/>
  <path d="m1419.6 1446.5q59.326 0 101.07 41.748 41.748 39.551 41.748 98.877 0 59.326-41.748 101.07-41.748 39.551-101.07 39.551-57.129 0-98.877-39.551-39.551-41.748-39.551-101.07 0-59.326 39.551-98.877 41.748-41.748 98.877-41.748z"/>
  <path d="m756.11 1211.2q145.02 4.3946 340.58 50.537 68.115 15.381 85.693 81.299 15.381 65.918-39.551 109.86-35.156 28.564-83.496 19.775-186.77-41.748-316.41-41.748-54.932 0-101.07 8.7891-46.143 8.7891-76.904 21.973-24.17 10.986-43.945 10.986-57.129 0-92.285-54.932-37.354-57.129-2.1973-116.46 81.299-94.482 329.59-90.088z"/>
  <path d="m2239.2 780.86q63.721-127.44 180.18-232.91 136.23 81.299 221.92 215.33-202.15 6.5918-402.1 17.578z"/>
</svg>
